<?xml version="1.0" encoding="UTF-8"?>
<svg xmlns="http://www.w3.org/2000/svg" xmlns:xlink="http://www.w3.org/1999/xlink" width="30pt" height="30pt" viewBox="0 0 30 30" version="1.1">
<g id="surface1">
<path style=" stroke:none;fill-rule:evenodd;fill:rgb(74.901961%,3.921569%,18.823529%);fill-opacity:1;" d="M 0.0390625 27.523438 L 29.960938 27.523438 L 29.960938 29.925781 L 0.0390625 29.925781 Z M 0.0390625 27.523438 "/>
<path style=" stroke:none;fill-rule:evenodd;fill:rgb(100%,100%,100%);fill-opacity:1;" d="M 0.0390625 25.125 L 29.960938 25.125 L 29.960938 27.523438 L 0.0390625 27.523438 Z M 0.0390625 25.125 "/>
<path style=" stroke:none;fill-rule:evenodd;fill:rgb(74.901961%,3.921569%,18.823529%);fill-opacity:1;" d="M 0.0390625 22.726562 L 29.960938 22.726562 L 29.960938 25.125 L 0.0390625 25.125 Z M 0.0390625 22.726562 "/>
<path style=" stroke:none;fill-rule:evenodd;fill:rgb(100%,100%,100%);fill-opacity:1;" d="M 0.0390625 20.324219 L 29.960938 20.324219 L 29.960938 22.726562 L 0.0390625 22.726562 Z M 0.0390625 20.324219 "/>
<path style=" stroke:none;fill-rule:evenodd;fill:rgb(74.901961%,3.921569%,18.823529%);fill-opacity:1;" d="M 0.0390625 18.074219 L 29.960938 18.074219 L 29.960938 20.324219 L 0.0390625 20.324219 Z M 0.0390625 18.074219 "/>
<path style=" stroke:none;fill-rule:evenodd;fill:rgb(100%,100%,100%);fill-opacity:1;" d="M 0.0390625 15.824219 L 29.960938 15.824219 L 29.960938 18.074219 L 0.0390625 18.074219 Z M 0.0390625 15.824219 "/>
<path style=" stroke:none;fill-rule:evenodd;fill:rgb(74.901961%,3.921569%,18.823529%);fill-opacity:1;" d="M 0.0390625 13.574219 L 29.960938 13.574219 L 29.960938 15.824219 L 0.0390625 15.824219 Z M 0.0390625 13.574219 "/>
<path style=" stroke:none;fill-rule:evenodd;fill:rgb(100%,100%,100%);fill-opacity:1;" d="M 0.0390625 11.324219 L 29.960938 11.324219 L 29.960938 13.574219 L 0.0390625 13.574219 Z M 0.0390625 11.324219 "/>
<path style=" stroke:none;fill-rule:evenodd;fill:rgb(74.901961%,3.921569%,18.823529%);fill-opacity:1;" d="M 0.0390625 9.074219 L 29.960938 9.074219 L 29.960938 11.324219 L 0.0390625 11.324219 Z M 0.0390625 9.074219 "/>
<path style=" stroke:none;fill-rule:evenodd;fill:rgb(100%,100%,100%);fill-opacity:1;" d="M 0.0390625 6.824219 L 29.960938 6.824219 L 29.960938 9.074219 L 0.0390625 9.074219 Z M 0.0390625 6.824219 "/>
<path style=" stroke:none;fill-rule:evenodd;fill:rgb(74.901961%,3.921569%,18.823529%);fill-opacity:1;" d="M 0.0390625 4.574219 L 29.960938 4.574219 L 29.960938 6.824219 L 0.0390625 6.824219 Z M 0.0390625 4.574219 "/>
<path style=" stroke:none;fill-rule:evenodd;fill:rgb(100%,100%,100%);fill-opacity:1;" d="M 0.0390625 2.324219 L 29.960938 2.324219 L 29.960938 4.574219 L 0.0390625 4.574219 Z M 0.0390625 2.324219 "/>
<path style=" stroke:none;fill-rule:evenodd;fill:rgb(74.901961%,3.921569%,18.823529%);fill-opacity:1;" d="M 0.0390625 0.0742188 L 29.960938 0.0742188 L 29.960938 2.324219 L 0.0390625 2.324219 Z M 0.0390625 0.0742188 "/>
<path style=" stroke:none;fill-rule:evenodd;fill:rgb(0%,15.686275%,40.784314%);fill-opacity:1;" d="M 0.0390625 0.0742188 L 12.039062 0.0742188 L 12.039062 15.824219 L 0.0390625 15.824219 Z M 0.0390625 0.0742188 "/>
<path style=" stroke:none;fill-rule:evenodd;fill:rgb(100%,100%,100%);fill-opacity:1;" d="M 0.539062 13.96875 L 0.890625 13.894531 L 1.019531 13.253906 L 1.164062 13.886719 L 1.511719 13.941406 L 1.25 14.40625 L 1.335938 15.082031 L 1.03125 14.730469 L 0.734375 15.097656 L 0.808594 14.417969 Z M 0.539062 13.96875 "/>
<path style=" stroke:none;fill-rule:evenodd;fill:rgb(100%,100%,100%);fill-opacity:1;" d="M 2.515625 13.96875 L 2.863281 13.894531 L 2.996094 13.253906 L 3.136719 13.886719 L 3.484375 13.941406 L 3.226562 14.40625 L 3.308594 15.082031 L 3.003906 14.730469 L 2.707031 15.097656 L 2.78125 14.417969 Z M 2.515625 13.96875 "/>
<path style=" stroke:none;fill-rule:evenodd;fill:rgb(100%,100%,100%);fill-opacity:1;" d="M 4.566406 13.96875 L 4.914062 13.894531 L 5.046875 13.253906 L 5.1875 13.886719 L 5.539062 13.941406 L 5.277344 14.40625 L 5.359375 15.082031 L 5.058594 14.730469 L 4.761719 15.097656 L 4.832031 14.417969 Z M 4.566406 13.96875 "/>
<path style=" stroke:none;fill-rule:evenodd;fill:rgb(100%,100%,100%);fill-opacity:1;" d="M 6.539062 13.96875 L 6.890625 13.894531 L 7.019531 13.253906 L 7.164062 13.886719 L 7.511719 13.941406 L 7.25 14.40625 L 7.335938 15.082031 L 7.03125 14.730469 L 6.734375 15.097656 L 6.808594 14.417969 Z M 6.539062 13.96875 "/>
<path style=" stroke:none;fill-rule:evenodd;fill:rgb(100%,100%,100%);fill-opacity:1;" d="M 8.515625 13.96875 L 8.863281 13.894531 L 8.996094 13.253906 L 9.136719 13.886719 L 9.484375 13.941406 L 9.226562 14.40625 L 9.308594 15.082031 L 9.003906 14.730469 L 8.707031 15.097656 L 8.78125 14.417969 Z M 8.515625 13.96875 "/>
<path style=" stroke:none;fill-rule:evenodd;fill:rgb(100%,100%,100%);fill-opacity:1;" d="M 10.566406 13.96875 L 10.914062 13.894531 L 11.046875 13.253906 L 11.1875 13.886719 L 11.539062 13.941406 L 11.277344 14.40625 L 11.359375 15.082031 L 11.058594 14.730469 L 10.761719 15.097656 L 10.832031 14.417969 Z M 10.566406 13.96875 "/>
<path style=" stroke:none;fill-rule:evenodd;fill:rgb(100%,100%,100%);fill-opacity:1;" d="M 1.566406 12.46875 L 1.914062 12.394531 L 2.046875 11.753906 L 2.1875 12.386719 L 2.539062 12.441406 L 2.277344 12.90625 L 2.359375 13.582031 L 2.058594 13.230469 L 1.761719 13.597656 L 1.832031 12.917969 Z M 1.566406 12.46875 "/>
<path style=" stroke:none;fill-rule:evenodd;fill:rgb(100%,100%,100%);fill-opacity:1;" d="M 0.539062 10.816406 L 0.890625 10.746094 L 1.019531 10.101562 L 1.164062 10.738281 L 1.511719 10.789062 L 1.25 11.253906 L 1.335938 11.929688 L 1.03125 11.582031 L 0.734375 11.945312 L 0.808594 11.265625 Z M 0.539062 10.816406 "/>
<path style=" stroke:none;fill-rule:evenodd;fill:rgb(100%,100%,100%);fill-opacity:1;" d="M 1.566406 9.316406 L 1.914062 9.246094 L 2.046875 8.601562 L 2.1875 9.238281 L 2.539062 9.289062 L 2.277344 9.753906 L 2.359375 10.429688 L 2.058594 10.082031 L 1.761719 10.449219 L 1.832031 9.765625 Z M 1.566406 9.316406 "/>
<path style=" stroke:none;fill-rule:evenodd;fill:rgb(100%,100%,100%);fill-opacity:1;" d="M 0.539062 7.667969 L 0.890625 7.597656 L 1.019531 6.953125 L 1.164062 7.589844 L 1.511719 7.640625 L 1.25 8.105469 L 1.335938 8.78125 L 1.03125 8.433594 L 0.734375 8.796875 L 0.808594 8.117188 Z M 0.539062 7.667969 "/>
<path style=" stroke:none;fill-rule:evenodd;fill:rgb(100%,100%,100%);fill-opacity:1;" d="M 1.566406 6.167969 L 1.914062 6.097656 L 2.046875 5.453125 L 2.1875 6.089844 L 2.539062 6.140625 L 2.277344 6.605469 L 2.359375 7.28125 L 2.058594 6.933594 L 1.761719 7.296875 L 1.832031 6.617188 Z M 1.566406 6.167969 "/>
<path style=" stroke:none;fill-rule:evenodd;fill:rgb(100%,100%,100%);fill-opacity:1;" d="M 0.539062 4.515625 L 0.890625 4.445312 L 1.019531 3.800781 L 1.164062 4.4375 L 1.511719 4.492188 L 1.25 4.953125 L 1.335938 5.632812 L 1.03125 5.28125 L 0.734375 5.648438 L 0.808594 4.96875 Z M 0.539062 4.515625 "/>
<path style=" stroke:none;fill-rule:evenodd;fill:rgb(100%,100%,100%);fill-opacity:1;" d="M 1.566406 3.015625 L 1.914062 2.945312 L 2.046875 2.300781 L 2.1875 2.9375 L 2.539062 2.992188 L 2.277344 3.453125 L 2.359375 4.132812 L 2.058594 3.78125 L 1.761719 4.148438 L 1.832031 3.46875 Z M 1.566406 3.015625 "/>
<path style=" stroke:none;fill-rule:evenodd;fill:rgb(100%,100%,100%);fill-opacity:1;" d="M 0.539062 1.367188 L 0.890625 1.296875 L 1.019531 0.652344 L 1.164062 1.289062 L 1.511719 1.339844 L 1.25 1.804688 L 1.335938 2.480469 L 1.03125 2.132812 L 0.734375 2.496094 L 0.808594 1.816406 Z M 0.539062 1.367188 "/>
<path style=" stroke:none;fill-rule:evenodd;fill:rgb(100%,100%,100%);fill-opacity:1;" d="M 3.539062 12.46875 L 3.890625 12.394531 L 4.019531 11.753906 L 4.164062 12.386719 L 4.511719 12.441406 L 4.25 12.90625 L 4.335938 13.582031 L 4.03125 13.230469 L 3.734375 13.597656 L 3.808594 12.917969 Z M 3.539062 12.46875 "/>
<path style=" stroke:none;fill-rule:evenodd;fill:rgb(100%,100%,100%);fill-opacity:1;" d="M 2.515625 10.816406 L 2.863281 10.746094 L 2.996094 10.101562 L 3.136719 10.738281 L 3.484375 10.789062 L 3.226562 11.253906 L 3.308594 11.929688 L 3.003906 11.582031 L 2.707031 11.945312 L 2.78125 11.265625 Z M 2.515625 10.816406 "/>
<path style=" stroke:none;fill-rule:evenodd;fill:rgb(100%,100%,100%);fill-opacity:1;" d="M 3.539062 9.316406 L 3.890625 9.246094 L 4.019531 8.601562 L 4.164062 9.238281 L 4.511719 9.289062 L 4.25 9.753906 L 4.335938 10.429688 L 4.03125 10.082031 L 3.734375 10.449219 L 3.808594 9.765625 Z M 3.539062 9.316406 "/>
<path style=" stroke:none;fill-rule:evenodd;fill:rgb(100%,100%,100%);fill-opacity:1;" d="M 2.515625 7.667969 L 2.863281 7.597656 L 2.996094 6.953125 L 3.136719 7.589844 L 3.484375 7.640625 L 3.226562 8.105469 L 3.308594 8.78125 L 3.003906 8.433594 L 2.707031 8.796875 L 2.78125 8.117188 Z M 2.515625 7.667969 "/>
<path style=" stroke:none;fill-rule:evenodd;fill:rgb(100%,100%,100%);fill-opacity:1;" d="M 3.539062 6.167969 L 3.890625 6.097656 L 4.019531 5.453125 L 4.164062 6.089844 L 4.511719 6.140625 L 4.25 6.605469 L 4.335938 7.28125 L 4.03125 6.933594 L 3.734375 7.296875 L 3.808594 6.617188 Z M 3.539062 6.167969 "/>
<path style=" stroke:none;fill-rule:evenodd;fill:rgb(100%,100%,100%);fill-opacity:1;" d="M 2.515625 4.515625 L 2.863281 4.445312 L 2.996094 3.800781 L 3.136719 4.4375 L 3.484375 4.492188 L 3.226562 4.953125 L 3.308594 5.632812 L 3.003906 5.28125 L 2.707031 5.648438 L 2.78125 4.96875 Z M 2.515625 4.515625 "/>
<path style=" stroke:none;fill-rule:evenodd;fill:rgb(100%,100%,100%);fill-opacity:1;" d="M 3.539062 3.015625 L 3.890625 2.945312 L 4.019531 2.300781 L 4.164062 2.9375 L 4.511719 2.992188 L 4.25 3.453125 L 4.335938 4.132812 L 4.03125 3.78125 L 3.734375 4.148438 L 3.808594 3.46875 Z M 3.539062 3.015625 "/>
<path style=" stroke:none;fill-rule:evenodd;fill:rgb(100%,100%,100%);fill-opacity:1;" d="M 2.515625 1.367188 L 2.863281 1.296875 L 2.996094 0.652344 L 3.136719 1.289062 L 3.484375 1.339844 L 3.226562 1.804688 L 3.308594 2.480469 L 3.003906 2.132812 L 2.707031 2.496094 L 2.78125 1.816406 Z M 2.515625 1.367188 "/>
<path style=" stroke:none;fill-rule:evenodd;fill:rgb(100%,100%,100%);fill-opacity:1;" d="M 5.515625 12.46875 L 5.863281 12.394531 L 5.996094 11.753906 L 6.136719 12.386719 L 6.484375 12.441406 L 6.226562 12.90625 L 6.308594 13.582031 L 6.003906 13.230469 L 5.707031 13.597656 L 5.78125 12.917969 Z M 5.515625 12.46875 "/>
<path style=" stroke:none;fill-rule:evenodd;fill:rgb(100%,100%,100%);fill-opacity:1;" d="M 4.566406 10.816406 L 4.914062 10.746094 L 5.046875 10.101562 L 5.1875 10.738281 L 5.539062 10.789062 L 5.277344 11.253906 L 5.359375 11.929688 L 5.058594 11.582031 L 4.761719 11.945312 L 4.832031 11.265625 Z M 4.566406 10.816406 "/>
<path style=" stroke:none;fill-rule:evenodd;fill:rgb(100%,100%,100%);fill-opacity:1;" d="M 8.515625 10.816406 L 8.863281 10.746094 L 8.996094 10.101562 L 9.136719 10.738281 L 9.484375 10.789062 L 9.226562 11.253906 L 9.308594 11.929688 L 9.003906 11.582031 L 8.707031 11.945312 L 8.78125 11.265625 Z M 8.515625 10.816406 "/>
<path style=" stroke:none;fill-rule:evenodd;fill:rgb(100%,100%,100%);fill-opacity:1;" d="M 6.539062 10.816406 L 6.890625 10.746094 L 7.019531 10.101562 L 7.164062 10.738281 L 7.511719 10.789062 L 7.25 11.253906 L 7.335938 11.929688 L 7.03125 11.582031 L 6.734375 11.945312 L 6.808594 11.265625 Z M 6.539062 10.816406 "/>
<path style=" stroke:none;fill-rule:evenodd;fill:rgb(100%,100%,100%);fill-opacity:1;" d="M 9.539062 12.46875 L 9.890625 12.394531 L 10.019531 11.753906 L 10.164062 12.386719 L 10.511719 12.441406 L 10.25 12.90625 L 10.335938 13.582031 L 10.03125 13.230469 L 9.734375 13.597656 L 9.808594 12.917969 Z M 9.539062 12.46875 "/>
<path style=" stroke:none;fill-rule:evenodd;fill:rgb(100%,100%,100%);fill-opacity:1;" d="M 7.566406 12.46875 L 7.914062 12.394531 L 8.046875 11.753906 L 8.1875 12.386719 L 8.539062 12.441406 L 8.277344 12.90625 L 8.359375 13.582031 L 8.058594 13.230469 L 7.761719 13.597656 L 7.832031 12.917969 Z M 7.566406 12.46875 "/>
<path style=" stroke:none;fill-rule:evenodd;fill:rgb(100%,100%,100%);fill-opacity:1;" d="M 4.566406 1.367188 L 4.914062 1.296875 L 5.046875 0.652344 L 5.1875 1.289062 L 5.539062 1.339844 L 5.277344 1.804688 L 5.359375 2.480469 L 5.058594 2.132812 L 4.761719 2.496094 L 4.832031 1.816406 Z M 4.566406 1.367188 "/>
<path style=" stroke:none;fill-rule:evenodd;fill:rgb(100%,100%,100%);fill-opacity:1;" d="M 5.515625 3.015625 L 5.863281 2.945312 L 5.996094 2.300781 L 6.136719 2.9375 L 6.484375 2.992188 L 6.226562 3.453125 L 6.308594 4.132812 L 6.003906 3.78125 L 5.707031 4.148438 L 5.78125 3.46875 Z M 5.515625 3.015625 "/>
<path style=" stroke:none;fill-rule:evenodd;fill:rgb(100%,100%,100%);fill-opacity:1;" d="M 4.566406 4.515625 L 4.914062 4.445312 L 5.046875 3.800781 L 5.1875 4.4375 L 5.539062 4.492188 L 5.277344 4.953125 L 5.359375 5.632812 L 5.058594 5.28125 L 4.761719 5.648438 L 4.832031 4.96875 Z M 4.566406 4.515625 "/>
<path style=" stroke:none;fill-rule:evenodd;fill:rgb(100%,100%,100%);fill-opacity:1;" d="M 5.515625 6.167969 L 5.863281 6.097656 L 5.996094 5.453125 L 6.136719 6.089844 L 6.484375 6.140625 L 6.226562 6.605469 L 6.308594 7.28125 L 6.003906 6.933594 L 5.707031 7.296875 L 5.78125 6.617188 Z M 5.515625 6.167969 "/>
<path style=" stroke:none;fill-rule:evenodd;fill:rgb(100%,100%,100%);fill-opacity:1;" d="M 4.566406 7.667969 L 4.914062 7.597656 L 5.046875 6.953125 L 5.1875 7.589844 L 5.539062 7.640625 L 5.277344 8.105469 L 5.359375 8.78125 L 5.058594 8.433594 L 4.761719 8.796875 L 4.832031 8.117188 Z M 4.566406 7.667969 "/>
<path style=" stroke:none;fill-rule:evenodd;fill:rgb(100%,100%,100%);fill-opacity:1;" d="M 5.515625 9.316406 L 5.863281 9.246094 L 5.996094 8.601562 L 6.136719 9.238281 L 6.484375 9.289062 L 6.226562 9.753906 L 6.308594 10.429688 L 6.003906 10.082031 L 5.707031 10.449219 L 5.78125 9.765625 Z M 5.515625 9.316406 "/>
<path style=" stroke:none;fill-rule:evenodd;fill:rgb(100%,100%,100%);fill-opacity:1;" d="M 10.566406 10.816406 L 10.914062 10.746094 L 11.046875 10.101562 L 11.1875 10.738281 L 11.539062 10.789062 L 11.277344 11.253906 L 11.359375 11.929688 L 11.058594 11.582031 L 10.761719 11.945312 L 10.832031 11.265625 Z M 10.566406 10.816406 "/>
<path style=" stroke:none;fill-rule:evenodd;fill:rgb(100%,100%,100%);fill-opacity:1;" d="M 6.539062 7.667969 L 6.890625 7.597656 L 7.019531 6.953125 L 7.164062 7.589844 L 7.511719 7.640625 L 7.25 8.105469 L 7.335938 8.78125 L 7.03125 8.433594 L 6.734375 8.796875 L 6.808594 8.117188 Z M 6.539062 7.667969 "/>
<path style=" stroke:none;fill-rule:evenodd;fill:rgb(100%,100%,100%);fill-opacity:1;" d="M 6.539062 1.367188 L 6.890625 1.296875 L 7.019531 0.652344 L 7.164062 1.289062 L 7.511719 1.339844 L 7.25 1.804688 L 7.335938 2.480469 L 7.03125 2.132812 L 6.734375 2.496094 L 6.808594 1.816406 Z M 6.539062 1.367188 "/>
<path style=" stroke:none;fill-rule:evenodd;fill:rgb(100%,100%,100%);fill-opacity:1;" d="M 6.539062 4.515625 L 6.890625 4.445312 L 7.019531 3.800781 L 7.164062 4.4375 L 7.511719 4.492188 L 7.25 4.953125 L 7.335938 5.632812 L 7.03125 5.28125 L 6.734375 5.648438 L 6.808594 4.96875 Z M 6.539062 4.515625 "/>
<path style=" stroke:none;fill-rule:evenodd;fill:rgb(100%,100%,100%);fill-opacity:1;" d="M 9.539062 9.316406 L 9.890625 9.246094 L 10.019531 8.601562 L 10.164062 9.238281 L 10.511719 9.289062 L 10.25 9.753906 L 10.335938 10.429688 L 10.03125 10.082031 L 9.734375 10.449219 L 9.808594 9.765625 Z M 9.539062 9.316406 "/>
<path style=" stroke:none;fill-rule:evenodd;fill:rgb(100%,100%,100%);fill-opacity:1;" d="M 7.566406 9.316406 L 7.914062 9.246094 L 8.046875 8.601562 L 8.1875 9.238281 L 8.539062 9.289062 L 8.277344 9.753906 L 8.359375 10.429688 L 8.058594 10.082031 L 7.761719 10.449219 L 7.832031 9.765625 Z M 7.566406 9.316406 "/>
<path style=" stroke:none;fill-rule:evenodd;fill:rgb(100%,100%,100%);fill-opacity:1;" d="M 7.566406 3.015625 L 7.914062 2.945312 L 8.046875 2.300781 L 8.1875 2.9375 L 8.539062 2.992188 L 8.277344 3.453125 L 8.359375 4.132812 L 8.058594 3.78125 L 7.761719 4.148438 L 7.832031 3.46875 Z M 7.566406 3.015625 "/>
<path style=" stroke:none;fill-rule:evenodd;fill:rgb(100%,100%,100%);fill-opacity:1;" d="M 7.566406 6.167969 L 7.914062 6.097656 L 8.046875 5.453125 L 8.1875 6.089844 L 8.539062 6.140625 L 8.277344 6.605469 L 8.359375 7.28125 L 8.058594 6.933594 L 7.761719 7.296875 L 7.832031 6.617188 Z M 7.566406 6.167969 "/>
<path style=" stroke:none;fill-rule:evenodd;fill:rgb(100%,100%,100%);fill-opacity:1;" d="M 10.566406 7.667969 L 10.914062 7.597656 L 11.046875 6.953125 L 11.1875 7.589844 L 11.539062 7.640625 L 11.277344 8.105469 L 11.359375 8.78125 L 11.058594 8.433594 L 10.761719 8.796875 L 10.832031 8.117188 Z M 10.566406 7.667969 "/>
<path style=" stroke:none;fill-rule:evenodd;fill:rgb(100%,100%,100%);fill-opacity:1;" d="M 8.515625 7.667969 L 8.863281 7.597656 L 8.996094 6.953125 L 9.136719 7.589844 L 9.484375 7.640625 L 9.226562 8.105469 L 9.308594 8.78125 L 9.003906 8.433594 L 8.707031 8.796875 L 8.78125 8.117188 Z M 8.515625 7.667969 "/>
<path style=" stroke:none;fill-rule:evenodd;fill:rgb(100%,100%,100%);fill-opacity:1;" d="M 8.515625 1.367188 L 8.863281 1.296875 L 8.996094 0.652344 L 9.136719 1.289062 L 9.484375 1.339844 L 9.226562 1.804688 L 9.308594 2.480469 L 9.003906 2.132812 L 8.707031 2.496094 L 8.78125 1.816406 Z M 8.515625 1.367188 "/>
<path style=" stroke:none;fill-rule:evenodd;fill:rgb(100%,100%,100%);fill-opacity:1;" d="M 8.515625 4.515625 L 8.863281 4.445312 L 8.996094 3.800781 L 9.136719 4.4375 L 9.484375 4.492188 L 9.226562 4.953125 L 9.308594 5.632812 L 9.003906 5.28125 L 8.707031 5.648438 L 8.78125 4.96875 Z M 8.515625 4.515625 "/>
<path style=" stroke:none;fill-rule:evenodd;fill:rgb(100%,100%,100%);fill-opacity:1;" d="M 10.566406 1.367188 L 10.914062 1.296875 L 11.046875 0.652344 L 11.1875 1.289062 L 11.539062 1.339844 L 11.277344 1.804688 L 11.359375 2.480469 L 11.058594 2.132812 L 10.761719 2.496094 L 10.832031 1.816406 Z M 10.566406 1.367188 "/>
<path style=" stroke:none;fill-rule:evenodd;fill:rgb(100%,100%,100%);fill-opacity:1;" d="M 9.539062 3.015625 L 9.890625 2.945312 L 10.019531 2.300781 L 10.164062 2.9375 L 10.511719 2.992188 L 10.25 3.453125 L 10.335938 4.132812 L 10.03125 3.78125 L 9.734375 4.148438 L 9.808594 3.46875 Z M 9.539062 3.015625 "/>
<path style=" stroke:none;fill-rule:evenodd;fill:rgb(100%,100%,100%);fill-opacity:1;" d="M 10.566406 4.515625 L 10.914062 4.445312 L 11.046875 3.800781 L 11.1875 4.4375 L 11.539062 4.492188 L 11.277344 4.953125 L 11.359375 5.632812 L 11.058594 5.28125 L 10.761719 5.648438 L 10.832031 4.96875 Z M 10.566406 4.515625 "/>
<path style=" stroke:none;fill-rule:evenodd;fill:rgb(100%,100%,100%);fill-opacity:1;" d="M 9.539062 6.167969 L 9.890625 6.097656 L 10.019531 5.453125 L 10.164062 6.089844 L 10.511719 6.140625 L 10.25 6.605469 L 10.335938 7.28125 L 10.03125 6.933594 L 9.734375 7.296875 L 9.808594 6.617188 Z M 9.539062 6.167969 "/>
<path style=" stroke:none;fill-rule:nonzero;fill:rgb(100%,100%,100%);fill-opacity:1;" d="M 0.00390625 29.992188 L 30.085938 0.199219 L 30.015625 30.058594 Z M 0.00390625 29.992188 "/>
<path style=" stroke:none;fill-rule:nonzero;fill:rgb(0%,14.117647%,49.019608%);fill-opacity:1;" d="M 17.453125 29.953125 L 17.425781 19.058594 L 29.953125 19.082031 L 29.96875 29.929688 Z M 17.453125 29.953125 "/>
<path style=" stroke:none;fill-rule:nonzero;fill:rgb(0%,14.117647%,49.019608%);fill-opacity:1;" d="M 29.960938 0.132812 L 19.78125 10.378906 L 29.941406 10.378906 Z M 29.960938 0.132812 "/>
<path style=" stroke:none;fill-rule:nonzero;fill:rgb(0%,14.117647%,49.019608%);fill-opacity:1;" d="M 0.0390625 29.957031 L 11.214844 18.90625 L 12.773438 18.9375 L 12.738281 29.992188 Z M 0.0390625 29.957031 "/>
<path style=" stroke:none;fill-rule:nonzero;fill:rgb(100%,100%,100%);fill-opacity:1;" d="M 30.027344 26.953125 L 29.996094 29.886719 L 27.378906 30.195312 L 17.113281 19.964844 L 17.230469 18.535156 L 21.785156 18.773438 Z M 30.027344 26.953125 "/>
<path style=" stroke:none;fill-rule:nonzero;fill:rgb(100%,100%,100%);fill-opacity:1;" d="M 30.050781 0 L 19.515625 10.648438 L 22.777344 10.785156 L 29.996094 3.503906 Z M 30.050781 0 "/>
<path style=" stroke:none;fill-rule:nonzero;fill:rgb(100%,100%,100%);fill-opacity:1;" d="M 0.00390625 29.859375 L 11.734375 18.40625 L 12.9375 18.492188 L 12.941406 20.667969 L 3.734375 29.925781 Z M 0.00390625 29.859375 "/>
<path style=" stroke:none;fill-rule:nonzero;fill:rgb(81.176471%,7.843137%,16.862745%);fill-opacity:1;" d="M -0.015625 29.890625 L 11.558594 18.5625 L 12.773438 18.570312 L 12.738281 19.746094 L 2.523438 29.925781 Z M -0.015625 29.890625 "/>
<path style=" stroke:none;fill-rule:nonzero;fill:rgb(81.176471%,7.843137%,16.862745%);fill-opacity:1;" d="M 18.839844 18.738281 L 21.109375 18.871094 L 29.980469 27.902344 L 29.945312 29.859375 Z M 18.839844 18.738281 "/>
<path style=" stroke:none;fill-rule:nonzero;fill:rgb(81.176471%,7.843137%,16.862745%);fill-opacity:1;" d="M 29.957031 17.425781 L 12.675781 17.390625 L 18.40625 11.8125 L 29.960938 11.859375 Z M 29.957031 17.425781 "/>
<path style=" stroke:none;fill-rule:nonzero;fill:rgb(81.176471%,7.843137%,16.862745%);fill-opacity:1;" d="M 16.554688 29.855469 L 16.589844 13.726562 L 13.601562 16.597656 L 13.609375 29.917969 Z M 16.554688 29.855469 "/>
<path style="fill:none;stroke-width:1;stroke-linecap:butt;stroke-linejoin:miter;stroke:rgb(0%,0%,0%);stroke-opacity:1;stroke-miterlimit:4;" d="M -0.00520833 0.994792 L 379.005208 0.994792 L 379.005208 200.005208 L -0.00520833 200.005208 Z M -0.00520833 0.994792 " transform="matrix(0.0789474,0,0,0.15,0.0394737,-0.075)"/>
</g>
</svg>
